# xmcd CD database file
#
# Track frame offsets:
#	150
#	14724
#	29774
#	45678
#	61878
#	79466
#	92579
#	107565
#	121415
#	137830
#	151877
#	165240
#	181282
#	192468
#
# Disc length: 2766 seconds
#
# Revision: 0
# Processed by: cddbd v1.4PL0 Copyright (c) Steve Scherf et al.
# Submitted via: CDex 1.50Beta7
#
DISCID=bb0acc0e
DTITLE=Acarajé Com Camarão - Acarajé Com Camarão
DYEAR=2002
DGENRE=Country
TTITLE0=Te Perdi
TTITLE1=Voz Doce, Fala Mansa
TTITLE2=Bateu Saudade
TTITLE3=Forró Merengue
TTITLE4=Fome de Amar
TTITLE5=Batida da Zabumba
TTITLE6=Forrozão
TTITLE7=É só o Começo
TTITLE8=Fica Comigo
TTITLE9=Quero Ver Suar
TTITLE10=Vem no Xamêgo
TTITLE11=No Compasso do Forró
TTITLE12=Mensagem do Além
TTITLE13=Vem Falar Baixinho
EXTD=YEAR: 2002
EXTT0=
EXTT1=
EXTT2=
EXTT3=
EXTT4=
EXTT5=
EXTT6=
EXTT7=
EXTT8=
EXTT9=
EXTT10=
EXTT11=
EXTT12=
EXTT13=
PLAYORDER=
